<?xml version="1.0" standalone="no"?>
<!DOCTYPE svg PUBLIC "-//W3C//DTD SVG 20010904//EN"
 "http://www.w3.org/TR/2001/REC-SVG-20010904/DTD/svg10.dtd">
<svg version="1.0" xmlns="http://www.w3.org/2000/svg"
 width="260.000000pt" height="260.000000pt" viewBox="0 0 260.000000 260.000000"
 preserveAspectRatio="xMidYMid meet">
<metadata>
Created by potrace 1.14, written by Peter Selinger 2001-2017
</metadata>
<g transform="translate(0.000000,260.000000) scale(0.100000,-0.100000)"
fill="#000000" stroke="none">
<path d="M649 2361 c-20 -20 -29 -39 -29 -61 0 -22 9 -41 29 -61 l29 -29 617
0 617 0 29 29 c39 40 39 82 0 122 l-29 29 -617 0 -617 0 -29 -29z"/>
<path d="M1147 1993 c-249 -64 -384 -258 -430 -618 -14 -103 -16 -487 -4 -540
3 -11 8 -40 11 -65 20 -128 70 -274 122 -353 95 -146 269 -227 474 -221 207 5
351 81 451 235 35 55 83 182 98 259 6 30 12 64 14 75 28 132 29 464 3 655 -36
259 -152 457 -312 532 -120 56 -299 73 -427 41z m305 -207 c116 -53 180 -179
206 -401 10 -86 8 -521 -3 -595 -29 -198 -86 -310 -186 -365 -45 -24 -68 -30
-141 -33 -188 -9 -283 60 -344 252 -32 104 -39 178 -39 441 0 334 14 445 71
559 44 88 119 149 199 162 22 3 41 7 43 8 1 2 33 2 71 0 47 -2 86 -11 123 -28z"/>
</g>
</svg>
